<?xml version="1.0" standalone="no"?>
<!DOCTYPE svg PUBLIC "-//W3C//DTD SVG 1.1//EN" "http://www.w3.org/Graphics/SVG/1.1/DTD/svg11.dtd" >
<svg xmlns="http://www.w3.org/2000/svg">
<metadata>
Created by FontForge 20120731 at Tue Dec 13 14:13:31 2016
 By admin
</metadata>
<defs>
<font id="iconfont" horiz-adv-x="1024" >
  <font-face 
    font-family="iconfont"
    font-weight="500"
    font-stretch="normal"
    units-per-em="1024"
    panose-1="2 0 6 3 0 0 0 0 0 0"
    ascent="896"
    descent="-128"
    x-height="792"
    bbox="0 -128 1074 896"
    underline-thickness="0"
    underline-position="0"
    unicode-range="U+0078-E63E"
  />
<missing-glyph 
 />
    <glyph glyph-name=".notdef" 
 />
    <glyph glyph-name=".notdef" 
 />
    <glyph glyph-name=".null" horiz-adv-x="0" 
 />
    <glyph glyph-name="nonmarkingreturn" horiz-adv-x="341" 
 />
    <glyph glyph-name="x" unicode="x" horiz-adv-x="1001" 
d="M281 543q-27 -1 -53 -1h-83q-18 0 -36.5 -6t-32.5 -18.5t-23 -32t-9 -45.5v-76h912v41q0 16 -0.5 30t-0.5 18q0 13 -5 29t-17 29.5t-31.5 22.5t-49.5 9h-133v-97h-438v97zM955 310v-52q0 -23 0.5 -52t0.5 -58t-10.5 -47.5t-26 -30t-33 -16t-31.5 -4.5q-14 -1 -29.5 -0.5
t-29.5 0.5h-32l-45 128h-439l-44 -128h-29h-34q-20 0 -45 1q-25 0 -41 9.5t-25.5 23t-13.5 29.5t-4 30v167h911zM163 247q-12 0 -21 -8.5t-9 -21.5t9 -21.5t21 -8.5q13 0 22 8.5t9 21.5t-9 21.5t-22 8.5zM316 123q-8 -26 -14 -48q-5 -19 -10.5 -37t-7.5 -25t-3 -15t1 -14.5
t9.5 -10.5t21.5 -4h37h67h81h80h64h36q23 0 34 12t2 38q-5 13 -9.5 30.5t-9.5 34.5q-5 19 -11 39h-368zM336 498v228q0 11 2.5 23t10 21.5t20.5 15.5t34 6h188q31 0 51.5 -14.5t20.5 -52.5v-227h-327z" />
    <glyph glyph-name="edit" unicode="&#xe617;" horiz-adv-x="1000" 
d="M930 759l-65 65q-37 37 -89.5 37t-89.5 -37l-47 -47l244 -244l47 46q37 38 37 90.5t-37 89.5zM248 143v66l-89 89l-6 -7q-30 -30 -36 -72l-19 -65l-13 -7l-45 -214l242 42l12 24l78 24l1 5q14 8 24 19l7 6l-90 90h-66v0zM195 333l53 -53v1h42v-96h96v-42h-1l55 -54
l415 416l-244 244z" />
    <glyph glyph-name="setting" unicode="&#xe62a;" horiz-adv-x="1000" 
d="M607 -26h-186v9q0 64 -44.5 109.5t-107.5 45.5q-42 0 -77 -21l-8 -5l-92 162l7 5q55 32 71.5 94t-14.5 117q-21 36 -57 57l-7 5l92 162l8 -5q36 -21 77 -21q40 0 75 20q37 21 57 57q21 37 21 78v9h185v-8q0 -65 45 -110.5t108 -45.5q41 0 77 21l7 4l93 -162l-8 -4
q-55 -32 -71.5 -94.5t15.5 -117.5q20 -36 56 -57l7 -4l-92 -162l-8 4q-36 21 -77 21q-40 0 -75 -20q-36 -21 -57 -57t-20 -77v-9zM439 -8h150q2 41 22 77q24 41 64 64q39 22 84 22q41 0 78 -19l75 131q-34 23 -55 59q-34 60 -17.5 127t73.5 105l-75 131q-37 -19 -78 -19
q-68 0 -117.5 48t-53.5 117h-149q-2 -42 -23 -79q-23 -40 -64 -63q-39 -23 -84 -23q-41 0 -78 19l-75 -131q35 -23 55 -59q36 -62 17 -131q-17 -64 -72 -100l75 -131q36 18 78 18q70 0 120 -50q46 -47 50 -113zM514 230q-75 0 -128 53.5t-53 129.5t53 129.5t128 53.5
t128.5 -53.5t53.5 -129.5t-53.5 -129.5t-128.5 -53.5zM514.5 578q-67.5 0 -115.5 -48.5t-48 -116.5t48 -116.5t115.5 -48.5t115.5 48.5t48 116.5t-48 116.5t-115.5 48.5z" />
    <glyph glyph-name="look" unicode="&#xe618;" 
d="M512 710q-66 0 -128.5 -18t-110 -46.5t-89.5 -64t-71 -69.5t-50 -63.5t-31 -47t-9 -17.5q2 -7 7.5 -19t25.5 -45.5t44.5 -64.5t66.5 -68.5t89 -64.5t114.5 -46t141.5 -19q68 0 131.5 18t111 47t89 63.5t70 69t49 63.5t30.5 46l9 18q-3 7 -9.5 19t-30 46t-50 65
t-69.5 68.5t-89.5 65t-110.5 46t-131 18.5zM513 180q-88 0 -146 58.5t-58 145t58 145.5t146 59t146 -59t58 -145.5t-58 -145t-146 -58.5zM513 506q-50 0 -86 -36.5t-36 -86t36 -86t86 -36.5t86 36.5t36 86t-36 86t-86 36.5z" />
    <glyph glyph-name="daoru" unicode="&#xe620;" 
d="M409 63v213q5 -1 16 -1.5t43.5 1t65 5.5t78 16t86.5 30.5t85 50t79 72.5t64.5 101.5t44.5 132.5q-4 -3 -10.5 -9t-28.5 -23t-45.5 -32.5t-58.5 -36.5t-70.5 -37t-79 -30.5t-85.5 -22t-89 -6t-91 13.5v203l-364 -372z" />
    <glyph glyph-name="pwd" unicode="&#xe61e;" 
d="M830 444l-523 1q0 12 -1.5 45t-1 54.5t3.5 50.5t13 53t27 43q31 34 75 58t89 24q70 0 123.5 -46t81.5 -118q9 -21 17.5 -30.5t23.5 -10.5q25 -1 37.5 14.5t10 34t-6.5 33.5q-79 205 -287 205q-72 0 -117.5 -18t-87.5 -64q-20 -23 -35.5 -52t-24 -58t-14 -60.5t-6.5 -59
t-2 -53.5t0 -45l-30 -1q-21 0 -36.5 -15t-15.5 -36v-430q0 -21 15.5 -36t36.5 -15h635q21 0 36 15t15 36v430q0 21 -15 36t-36 15v0zM801 35q0 -17 -12 -29t-29 -12h-493q-17 0 -29 12t-12 29v288q0 17 12 29t29 12h493q17 0 29 -12t12 -29v-288z" />
    <glyph glyph-name="del" unicode="&#xe619;" 
d="M747 725q22 -3 65.5 -2t60.5 -2q43 -7 64 -42t17 -90h-71q-1 -70 -1 -386q0 -21 1.5 -62.5t1 -73t-3.5 -57.5q-4 -40 -30.5 -65.5t-65.5 -31.5q-22 -4 -49.5 -4.5t-65.5 1t-53 1.5q-38 0 -107 -0.5t-125.5 -0.5t-106.5 1q-81 1 -118 51q-3 5 -6.5 10.5t-5.5 13.5
t-3.5 13.5t-2.5 15.5t-2 15t-1 17.5v17v19v18.5v487h-67q-8 49 10.5 84t56.5 47q16 5 39.5 6t45.5 -0.5t50 -0.5q-2 27 -0.5 50.5t7 41t19 29t36.5 14.5q12 1 28 1t37.5 -0.5t32.5 -0.5h197h21.5h24t18 -1.5t19 -4.5t12.5 -7q8 -7 12.5 -17t6.5 -24t2 -24.5v-29v-27.5z
M341 788v-65h339v68h-338q-1 0 -1 -3zM275 582v-413q0 -7 -0.5 -24.5t-0.5 -31t0.5 -29t4 -26t9.5 -14.5q7 -5 19.5 -5t20.5 5q6 4 10 14.5t5 26t1 28t-1 30.5t-1 25v417h-66q-1 0 -1 -3zM476 582v-400q0 -4 -1 -38.5t0 -57t7 -31.5q6 -11 23 -14.5t28 4.5q5 4 8 15t3.5 27
t0.5 30t-0.5 31t-0.5 23v414h-66q-2 0 -2 -3zM680 582v-418q0 -8 -0.5 -27.5t-0.5 -31t1.5 -26t6 -23.5t12.5 -12q10 -4 22.5 -2.5t16.5 5.5q7 5 9.5 22.5t2.5 34t-1 40t-1 30.5v411h-67q-1 0 -1 -3z" />
    <glyph glyph-name="add" unicode="&#xe629;" 
d="M585 -20q0 -30 -21.5 -51.5t-51.5 -21.5v0q-30 0 -51.5 21.5t-21.5 51.5v809q0 31 21.5 52t51.5 21v0q30 0 51.5 -21t21.5 -52v-809zM917 457q30 0 51.5 -21t21.5 -51v0q0 -31 -21.5 -52t-51.5 -21h-810q-30 0 -51.5 21t-21.5 52v0q0 30 21.5 51t51.5 21h810z" />
    <glyph glyph-name="info" unicode="&#xe61f;" 
d="M679 330q58 41 92 104t34 136q0 122 -86 207.5t-207.5 85.5t-207 -85.5t-85.5 -207.5q0 -73 33.5 -136t91.5 -104q-130 -51 -211 -167t-81 -260v0h82v0v1q0 143 95.5 249.5t237.5 123.5q52 5 94 -1h3v0q138 -20 230.5 -125.5t92.5 -246.5v-1v0h83v0q0 144 -80.5 260
t-210.5 167zM512 351q-91 0 -155.5 64t-64.5 155t64.5 155.5t155.5 64.5t155 -64.5t64 -155.5t-64 -155t-155 -64z" />
    <glyph glyph-name="download" unicode="&#xe61a;" 
d="M515 107l-296 411h163v336h268v-336h162l-296 -411h-1zM986 215h-102v-196h-743v196h-103v-301h949v301h-1z" />
    <glyph glyph-name="exit" unicode="&#xe62c;" 
d="M512.5 -92q-89.5 0 -171.5 33q-85 35 -151 100.5t-100 150.5q-34 83 -34 172t34 172q34 85 100 151q51 51 115 84l13 -26q-60 -30 -108 -78q-61 -61 -93 -139t-32 -164t32 -164t93 -139t141.5 -93t161.5 -32t161 32t141 93t93.5 139t32.5 164t-32.5 164t-93.5 139
q-50 50 -115 82l13 25q68 -33 122 -87q66 -66 101 -151q33 -83 33 -172t-33 -172q-35 -85 -100.5 -150.5t-151.5 -100.5q-82 -33 -171.5 -33zM493 851h32v-371h-32v371zM525 480h-32v371h32v-371zM493 480h32v371h-32v-371z" />
    <glyph glyph-name="icon47" unicode="&#xe60a;" 
d="M512 -18l-63 61q-60 53 -94.5 83.5t-81.5 74.5t-73 73t-55.5 67t-44.5 68.5t-25 66t-10 70.5q0 101 71 170.5t175 69.5q57 0 110.5 -24.5t90.5 -67.5q37 43 90.5 67.5t110.5 24.5q104 0 175 -69.5t71 -170.5q0 -35 -10 -70.5t-25 -66t-44.5 -68.5t-55.5 -67t-73 -73
t-81.5 -74.5t-95.5 -83.5z" />
    <glyph glyph-name="msg" unicode="&#xe60d;" 
d="M694 430l262 259q13 -13 13 -31v-548q0 -17 -12 -30zM71 690q14 13 31 13l824 -2q16 0 28 -11l-441 -349zM68 80q-11 13 -11 30v548q0 18 13 31l260 -259zM512 265l137 119l306 -306q-12 -11 -29 -11h-826q-17 0 -30 11l305 306z" />
    <glyph glyph-name="coding" unicode="&#xe625;" 
d="M296 180q0 -15 10.5 -25.5t25.5 -10.5h360q15 0 25.5 10.5t10.5 25.5t-10.5 25.5t-25.5 10.5h-360q-15 0 -25.5 -10.5t-10.5 -25.5zM296 324q0 -15 10.5 -25.5t25.5 -10.5h360q15 0 25.5 10.5t10.5 25.5t-10.5 25.5t-25.5 10.5h-360q-15 0 -25.5 -10.5t-10.5 -25.5z
M464 698q0 19 14 32.5t34 13.5t34 -13.5t14 -32.5v-124q0 -19 -14 -32.5t-34 -13.5t-34 13.5t-14 32.5v124zM392 718v-142q1 -50 36 -85t84 -35t84 35t36 85v142q0 50 -35 86t-85 36t-85 -36t-35 -86zM186 576h206v72h-264q-39 0 -67.5 -28t-28.5 -68v-528q0 -39 28.5 -67.5
t67.5 -28.5h768q39 0 67.5 28.5t28.5 67.5v528q0 40 -28.5 68t-67.5 28h-264v-72h206q34 0 58 -24t24 -58v-412q0 -34 -24 -58t-58 -24h-652q-34 0 -58 24t-24 58v412q0 34 24 58t58 24z" />
    <glyph glyph-name="left-arrow" unicode="&#xe600;" 
d="M762 -123l-537 506l537 508l33 -35l-500 -473l500 -471z" />
    <glyph glyph-name="download2" unicode="&#xe621;" 
d="M978 -41q0 -17 -12 -29t-29 -12h-851q-16 0 -28 12t-12 29v0q0 17 12 29t28 12h851q17 0 29 -12t12 -29v0zM512 74q-17 0 -29 12t-12 28v695q0 17 12 29t29 12v0q17 0 28.5 -12t11.5 -29v-695q0 -16 -11.5 -28t-28.5 -12v0zM540 86q-11 -12 -28 -12t-29 12l-306 306
q-12 11 -12 28t12 29v0q12 12 29 12t29 -12l305 -306q12 -11 12 -28t-12 -29v0zM483 86q-12 12 -12 29t12 28l305 306q12 12 29 12t29 -12v0q12 -12 12 -29t-12 -28l-306 -306q-11 -12 -28 -12t-29 12v0z" />
    <glyph glyph-name="fenxiang" unicode="&#xe60b;" 
d="M787 266q-51 0 -95 -24.5t-70 -66.5l-211 121q22 42 22 88q0 26 -9 56l219 126q59 -64 144 -64q81 0 138.5 57.5t57.5 138.5t-57.5 139t-138.5 58t-138.5 -58t-57.5 -139q0 -26 9 -56l-219 -125q-59 63 -144 63q-81 0 -138.5 -57.5t-57.5 -138.5t57.5 -138.5t138.5 -57.5
q65 0 119 40l-1 -1l238 -136q-2 -16 -2 -21q0 -82 57.5 -139.5t138.5 -57.5t138.5 58t57.5 139t-57.5 138.5t-138.5 57.5zM787 816q49 0 83.5 -34.5t34.5 -83.5t-34.5 -83.5t-83.5 -34.5t-83.5 34.5t-34.5 83.5t34.5 83.5t83.5 34.5zM237 266q-49 0 -83.5 34.5t-34.5 83.5
t34.5 83.5t83.5 34.5t83.5 -34.5t34.5 -83.5t-34.5 -83.5t-83.5 -34.5zM787 -48q-49 0 -83.5 34.5t-34.5 83.5t34.5 83.5t83.5 34.5t83.5 -34.5t34.5 -83.5t-34.5 -83.5t-83.5 -34.5z" />
    <glyph glyph-name="image" unicode="&#xe62e;" 
d="M876 -22l-747 1h-2q-41 4 -69 34q-28 31 -28 73v562q0 45 32 76.5t76 31.5h738q45 0 76.5 -31.5t31.5 -76.5v-241v-1q-2 -54 16 -91q4 -7 1.5 -15t-9.5 -11.5t-15 -1t-12 9.5q-23 45 -21 111v240q0 28 -20 48t-48 20h-738q-28 0 -48 -20t-20 -48v-562q0 -26 17 -45.5
t43 -22.5h223h523q28 0 48 20t20 48v100q-1 20 -21 45v1l-23 30l-125 165q-5 6 -13.5 15.5t-32.5 22.5t-46 11q-63 -7 -116 -126q-28 -62 -56 -95t-59 -41q-22 -5 -46 3t-39.5 18.5t-43.5 32.5l-5 4q-26 20 -46 21t-46.5 -17.5t-76.5 -67.5q-6 -5 -14 -5t-14 6t-6 14t6 14
q77 75 114 90q52 20 107 -24l6 -4q23 -19 35.5 -27.5t29.5 -15.5t30 -3q41 10 87 113q63 140 148 149q21 3 41.5 -3t34.5 -14.5t27.5 -20.5t18 -17t6.5 -9l125 -165l23 -30q29 -37 29 -69v-1l1 -100q0 -45 -31.5 -76.5t-76.5 -31.5v0zM299 453q-34 0 -58 24t-24 58t24 58
t58 24t58 -24t24 -58t-24 -58t-58 -24zM299 577q-17 0 -29.5 -12t-12.5 -29.5t12.5 -30t29.5 -12.5t29.5 12.5t12.5 30t-12.5 29.5t-29.5 12z" />
    <glyph glyph-name="right-arrow" unicode="&#xe601;" 
d="M772 401l-459 467q-6 6 -13.5 6t-13 -5.5t-5.5 -13t5 -12.5l447 -455l-452 -453q-6 -5 -6 -12.5t5.5 -13t13 -5.5t13.5 5l465 466q6 5 6 13t-6 13z" />
    <glyph glyph-name="upload" unicode="&#xe63d;" 
d="M187 466q8 0 13 5l307 303v-649q0 -8 5.5 -13.5t14 -5.5t14 5.5t5.5 13.5v648l302 -298q6 -6 14 -6t13.5 6t5.5 14t-5 13l-335 331q-5 5 -12 5h-3v0v0q-9 0 -14 -5l-339 -334q-6 -6 -6 -14t6 -13.5t14 -5.5zM877 190q-8 0 -14 -5.5t-6 -13.5v-166q0 -9 -6.5 -16t-16.5 -7
h-619q-10 0 -17 7t-7 16v166q0 8 -5.5 13.5t-13.5 5.5t-14 -5.5t-6 -13.5v-166q0 -26 18.5 -44t44.5 -18h619q26 0 44 18t18 44v166q0 8 -5.5 13.5t-13.5 5.5z" />
    <glyph glyph-name="phone1" unicode="&#xe602;" 
d="M950 35l-42 -42q-26 -26 -63 -41q-41 -16 -92 -16q-92 0 -224.5 74t-235.5 177q-128 128 -191 281t-24 251q11 28 31 52v0l3 5q2 3 4 5l44 44q9 9 20.5 9t20.5 -9l193 -193q8 -8 8 -20t-8 -20l-78 -78q-1 -4 -1.5 -12t3 -32.5t12.5 -49.5t31.5 -60.5t55.5 -68.5
q98 -98 203 -102q19 0 19 1l78 78q8 9 20 9t20 -9l193 -192q9 -9 9 -21t-9 -20z" />
    <glyph glyph-name="back" unicode="&#xe608;" 
d="M746 764l-426 -437q-22 -22 -53 -22t-53 22.5t-22 54.5t22 55l426 436q22 23 53 23t53 -22.5t22 -54.5t-22 -55v0zM745 -105q-22 -23 -53 -23t-53 23l-425 435q-22 23 -22 55t22 54.5t53 22.5t53 -23l425 -435q22 -23 22 -55t-22 -54v0z" />
    <glyph glyph-name="map1" unicode="&#xe603;" 
d="M512 864q-149 0 -254.5 -105.5t-105.5 -254.5q0 -56 39 -140t86.5 -155.5t109.5 -151.5t86.5 -108.5t38.5 -44.5v0q15 16 39 44.5t86 108.5t109.5 151.5t86.5 155.5t39 140q0 149 -105.5 254.5t-254.5 105.5zM512 354q-75 0 -127.5 52.5t-52.5 127.5t52.5 127.5
t127.5 52.5t127.5 -52.5t52.5 -127.5t-52.5 -127.5t-127.5 -52.5z" />
    <glyph glyph-name="business" unicode="&#xe622;" 
d="M650 409q35 27 55 67t20 86q0 81 -57 138t-137.5 57t-138 -57t-57.5 -138q0 -46 20 -86t55 -67q-91 -37 -148 -119t-57 -183v-96h651v96q0 101 -57 183t-149 119v0v0zM530 692q54 0 92 -38t38 -92t-38 -92t-91.5 -38t-92 38t-38.5 92t38.5 92t91.5 38v0v0zM790 75h-520
v32q0 108 76.5 184t184 76t183.5 -76t76 -184v-32v0zM313 398q0 1 0.5 3t0.5 3l1 3v8q-1 0 -0.5 1.5t0 2t-0.5 1.5t-1 1q0 2 -1 4q-3 5 -5 8h-1q-5 5 -10 8q-27 11 -42.5 35.5t-15.5 53.5q0 34 20.5 60.5t53.5 33.5q13 4 20 15.5t4 24.5t-14.5 20t-24.5 4
q-55 -13 -89.5 -57.5t-34.5 -100.5q0 -63 42 -109q-64 -34 -102 -95.5t-38 -135.5v-50q0 -14 9.5 -23.5t23 -9.5t23 9.5t9.5 23.5v50q0 67 41 119.5t106 69.5q19 2 26 19v0v0zM846 421q42 46 42 109q0 55 -33.5 98.5t-86.5 58.5q-14 3 -25.5 -3.5t-15 -19.5t3.5 -25t20 -15
q31 -9 51.5 -35t20.5 -59q0 -29 -16 -53.5t-42 -35.5q-6 -3 -10 -8h-1q-3 -3 -5 -8q-2 -3 -2 -4l-0.5 -1l-0.5 -1v-2v-2q-1 -4 0 -8v-1.5t0.5 -2t0.5 -2.5t1 -3q7 -17 25 -19q65 -17 106 -69.5t41 -119.5v-50q0 -14 9.5 -23.5t23 -9.5t23 9.5t9.5 23.5v50q0 74 -37.5 135.5
t-101.5 95.5v0v0z" />
    <glyph glyph-name="myuser" unicode="&#xe62d;" 
d="M512 -100q-98 0 -187.5 38.5t-154 103t-103 154t-38.5 187.5t38.5 187.5t103 154t154 103t187.5 38.5t187.5 -38.5t154 -103t103 -154t38.5 -187.5t-38.5 -187.5t-103 -154t-154 -103t-187.5 -38.5zM512 845q-94 0 -179.5 -36.5t-147.5 -98.5t-98.5 -147.5t-36.5 -179.5
t36.5 -179.5t98.5 -147.5t147.5 -98.5t179.5 -36.5t179.5 36.5t147.5 98.5t98.5 147.5t36.5 179.5t-36.5 179.5t-98.5 147.5t-147.5 98.5t-179.5 36.5zM512 399q-57 0 -97.5 40.5t-40.5 98t40.5 98t97.5 40.5t97.5 -40.5t40.5 -98t-40.5 -98t-97.5 -40.5zM512 654
q-48 0 -82.5 -34t-34.5 -82.5t34.5 -82.5t82.5 -34t82.5 34t34.5 82.5t-34.5 82.5t-82.5 34zM846 37h-22q0 129 -91.5 221t-220.5 92t-220.5 -92t-91.5 -221h-22q0 91 45 168t122 121.5t167.5 44.5t167 -44.5t121.5 -121.5t45 -168z" />
    <glyph glyph-name="gouwuche" unicode="&#xe609;" 
d="M995 662.5q-11 14.5 -29 14.5h-767l-32 153q-3 13 -13 21t-23 8h-94q-16 0 -26.5 -10.5t-10.5 -25.5t10.5 -26t26.5 -11h64l140 -666q2 -12 12.5 -20.5t23.5 -8.5h550q16 0 26.5 11t10.5 26t-10.5 26t-26.5 11h-521l-23 109h595q12 0 22 7.5t13 19.5l88 330q5 17 -6 31.5
zM850 347h-582l-54 256h704zM347.5 55q-37.5 0 -64.5 -27t-27 -64.5t27 -64.5t64.5 -27t64.5 27t27 64.5t-27 64.5t-64.5 27zM347.5 -73q-15.5 0 -26 10.5t-10.5 26t10.5 26t26 10.5t26 -10.5t10.5 -26t-10.5 -26t-26 -10.5zM750 55q-38 0 -65 -27t-27 -64.5t27 -64.5
t65 -27t64.5 27t26.5 64.5t-26.5 64.5t-64.5 27zM750 -73q-15 0 -26 10.5t-11 26t11 26t26 10.5t25.5 -10.5t10.5 -26t-10.5 -26t-25.5 -10.5z" />
    <glyph glyph-name="supervise" unicode="&#xe639;" 
d="M931 864h-839q-25 0 -42.5 -17.5t-17.5 -42.5v-839q0 -25 17.5 -42.5t42.5 -17.5h839q25 0 42.5 17.5t17.5 42.5v839q0 25 -17.5 42.5t-42.5 17.5zM931 25q0 -25 -17.5 -42.5t-42.5 -17.5h-719q-25 0 -42.5 17.5t-17.5 42.5v719q0 25 17.5 42.5t42.5 17.5h719
q25 0 42.5 -17.5t17.5 -42.5v-719zM859 559q-22 13 -35 -2l-105 -248l-149 285q-9 23 -30 23q-20 -3 -26 -28l-100 -285l-87 120q-1 1 -4 5.5t-5 6.5t-6.5 4.5t-10.5 2.5q-15 -6 -17 -8q-6 -6 -8 -14l-117 -221q-8 -9 -8 -22t7.5 -22.5t19 -9.5t19.5 10l107 202l87 -120
q0 -1 2.5 -4.5t3.5 -4.5t3.5 -4t4 -4t4.5 -2.5t6 -2t7 -0.5q9 1 15 7.5t7 10.5t5 16l96 274l147 -281q5 -11 11 -16.5t18 -5.5q11 0 16.5 6t11.5 20l113 265q13 37 -3 47z" />
    <glyph glyph-name="commit" unicode="&#xe632;" 
d="M792 157l-1 -6v-185v-5q0 -9 -8.5 -13t-15.5 1q-1 1 -5 4q-141 142 -199 200q-4 4 -11 4h-406q-19 0 -32 7q-36 18 -39 57q-1 3 -1 9v520q0 25 12 41q19 28 52 30q4 1 9 1h357.5h372.5q16 0 27 -4q20 -7 32.5 -24t13.5 -39v-7v-514q0 -14 -1 -20q-4 -21 -18.5 -36
t-34.5 -19q-9 -2 -17 -2h-82h-5zM760 -1q1 6 1 7v162v4q0 16 16 16h19h86q13 0 23 8t13 21q1 5 1 13v519v5q0 13 -8 23t-20 13q-5 1 -13 1h-732h-4q-22 -1 -33 -20q-4 -8 -4 -21v-521v-4q1 -14 9.5 -24t21.5 -12q4 -1 13 -1h412q10 0 18 -7q40 -41 177 -177q0 -1 4 -5v0z
M349 422q-28 0 -48 20t-20 48t20 48t48 20t48 -20t20 -48.5t-20 -48t-48 -19.5zM349 452q15 0 26 11t11 26q0 16 -10.5 27t-26 11t-26.5 -10.5t-11.5 -26t11 -27t26.5 -11.5zM442 490q0 27 19.5 47.5t48.5 20.5q28 0 48 -20.5t20 -48.5q0 -29 -20.5 -48.5t-48.5 -18.5
q-28 0 -48 20.5t-19 47.5zM509 452q16 0 27 11t11 26q0 16 -10.5 27t-26.5 11q-14 0 -25.5 -10t-12.5 -27q0 -16 11 -27t26 -11zM602 490q1 28 21 48t48 20t48 -20t20 -49q0 -28 -20.5 -48t-49.5 -19q-27 0 -47 20t-20 48zM670.5 452q15.5 0 26.5 11t11 27q0 15 -11 26
t-26 11t-26.5 -10.5t-11.5 -26.5t11 -27t26.5 -11z" />
    <glyph glyph-name="sc-ren1" unicode="&#xe604;" 
d="M107 -55q0 -15 -10.5 -25.5t-25.5 -10.5t-26 10.5t-11 25.5q0 90 66 153q35 34 82.5 53.5t85.5 23.5q13 0 22 9v0l1 1q4 4 6 10q-35 29 -64 101q-11 28 -15 33v0l-3 2q-32 30 -46 70q-21 52 3 92q-14 39 -14 89q-1 72 25 135.5t80 99.5q60 40 150 42q46 1 78 -4
q58 -11 82 -45q52 5 98 -49q23 -26 39.5 -61.5t20.5 -62.5q6 -36 1 -75q-4 -28 -13 -61q15 -25 16 -51q1 -15 -4 -29q105 -2 179.5 -77t74.5 -180t-75.5 -180t-180.5 -75q-106 0 -181 75t-75 180q0 83 48 149.5t123 92.5q10 14 14 23t3 20t-10 23q-12 15 -7 34q12 36 15 65
q4 30 0 55q-3 18 -15 43t-28 45q-22 25 -37 23v0q-20 -2 -37 5q-18 9 -28 25q-8 11 -36 16q-18 3 -64 3q-68 -1 -110 -29q-41 -28 -58 -80l-1 -2q-15 -43 -14 -92q0 -45 14 -77q5 -11 4 -20v-1q-1 -8 -10 -23.5t-2 -34.5l-1 -1h1q8 -23 28 -41v-1h1v0q16 -15 35 -61
q24 -60 49 -76q20 -10 20 -33v-14q0 -39 -28 -68v0q-27 -27 -68 -31q-28 -2 -63 -16t-61 -40q-43 -41 -43 -100v0v0zM814 111v0q6 -6 6 -15.5t-6 -15.5q-7 -7 -16 -6.5t-15 6.5l-54 54l-54 -54q-6 -6 -15 -6t-16 6q-6 7 -6 16t6 15l54 54l-54 54q-6 6 -6 15t6 15q7 7 16 7
t15 -6l54 -54l54 54q6 6 15 6t16 -6q6 -7 6 -16t-6 -15l-54 -54zM887 256v0q-38 65 -111 85t-139 -18q-65 -38 -84.5 -111.5t18 -138.5t111 -85t138.5 18q66 38 85.5 111t-18.5 139v0z" />
    <glyph glyph-name="community" unicode="&#xe62f;" 
d="M909 672h-479q-34 -1 -58 -25t-24 -58v-478q0 -34 24.5 -58t58.5 -24h303l118 -119q6 -6 15 -6t15 6t6 15v104h20q35 0 59 24t24 58v478q0 34 -24 58.5t-58 24.5zM908 70h-41q-9 0 -15 -6q-5 -6 -6 -15v-74l-95 95h-320q-17 0 -29 12t-12 30v477q0 17 12 29t29 12h477
q18 0 30 -12t12 -29v-477q0 -18 -12 -30t-30 -12zM742 776q0 34 -24 58t-58 25h-540q-35 0 -59 -24.5t-24 -58.5v-540q0 -34 24 -58.5t59 -24.5h21v-104q0 -8 6 -14t14.5 -6t14.5 6l21 21l55.5 55.5l47.5 47.5q7 6 7 14.5t-6.5 15t-15 6.5t-14.5 -7l-89 -89v75q0 9 -6 14
q-6 6 -14 6h-42q-17 0 -29.5 12.5t-12.5 29.5v540q0 17 12.5 29t29.5 12h539q18 0 30 -12t12 -29v-42q0 -9 6 -15t14.5 -6t14.5 6t6 15v42z" />
    <glyph glyph-name="jiantou" unicode="&#xe605;" 
d="M953 591q5 5 5 12q0 8 -5.5 13.5t-13.5 5.5q-7 0 -12 -5v0v0l-104 -107.5t-208 -214.5l-104 -107q-416 428 -416 429h-1v0q-5 5 -12 5q-8 0 -13 -5.5t-5 -13.5q0 -7 4 -12l429 -443q15 -13 28 0q428 442 428 443v0v0v0z" />
    <glyph glyph-name="logsearch" unicode="&#xe612;" 
d="M900 16v562l-291 291h-388q-40 0 -68.5 -28t-28.5 -69v-776q0 -41 28 -69t68 -28h583q32 0 58 19l-215 215q-61 -40 -134 -40q-100 0 -171.5 71t-71.5 171.5t71.5 171.5t171.5 71t171.5 -71t71.5 -172q0 -72 -41 -133l186 -186v0zM366 335.5q0 -60.5 43 -103t103 -42.5
t103 42.5t43 103t-43 103t-103 42.5t-103 -42.5t-43 -103z" />
    <glyph glyph-name="link" unicode="&#xe62b;" 
d="M209 -80q-66 0 -112 47l-2 2q-47 46 -47 112t47 113l205 205q47 47 113 47t112 -47l2 -2q47 -46 47 -112t-47 -113l-205 -205q-47 -47 -113 -47zM412.5 405q-49.5 0 -83.5 -34l-206 -206q-34 -35 -34 -84t34 -84l2 -2q35 -34 84 -34t84 34l206 206q34 34 34 83.5
t-34 84.5l-2 2q-35 34 -84.5 34zM611 322q-66 0 -112 47l-2 2q-47 46 -47 112t47 113l205 205q47 47 113 47t112 -47l2 -2q47 -46 47 -112t-47 -113l-205 -205q-47 -47 -113 -47zM815 807q-49 0 -84 -34l-206 -206q-34 -34 -34 -83.5t34 -84.5l2 -2q35 -34 84.5 -34t83.5 34
l206 206q34 35 34 84t-34 84l-2 2q-35 34 -84 34zM364.5 216q-8.5 0 -14.5 6t-6 14.5t6 14.5l287 287q6 6 14.5 6t14.5 -6t6 -14.5t-6 -14.5l-287 -287q-6 -6 -14.5 -6z" />
    <glyph glyph-name="cancel" unicode="&#xe61b;" 
d="M918 551l-334 -310v191h-16h-38.5t-43.5 -2t-47.5 -6t-46 -12t-45.5 -19.5t-38 -30t-32 -42t-20 -56t-8 -71.5q0 -101 61 -184.5t154 -102.5q-154 21 -256 136t-102 270q0 62 14.5 114t36.5 89t56 66.5t66 48t73.5 31.5t71.5 19.5t67 10t53 3.5h37h3v168z" />
    <glyph glyph-name="recovery" unicode="&#xe635;" 
d="M746 -51h-462q-16 0 -19 15l-111 638q-2 8 4 15t14 7h685q9 0 14.5 -7t4.5 -15l-112 -638q-2 -15 -18 -15zM300 -13h430l105 599h-640zM647 674q-12 0 -17 11l-38 88l-135 8l-48 -83q-4 -6 -11.5 -8t-14 1.5t-8.5 11t1 14.5l54 93q5 10 17 9l159 -9q12 -1 16 -12l42 -98
q4 -7 1 -14.5t-10 -10.5q-4 -1 -8 -1zM918 658h-2l-811 48q-7 0 -12.5 6t-5 14t6.5 13t14 5l811 -49q7 0 12.5 -6t4.5 -14q0 -7 -5.5 -12t-12.5 -5z" />
    <glyph glyph-name="kefu" unicode="&#xe60c;" 
d="M825 512q-9 123 -99 207t-214 84t-214 -84t-100 -207q-45 -9 -75 -45t-30 -83v-52q0 -55 38.5 -93t92.5 -38h78v131v52v131h-51q10 100 85 168t176 68t176 -68t85 -168h-51v-131v-52v-131h51q-18 -82 -84 -135t-151 -53q-26 0 -52 6v-49q26 -5 52 -5q106 0 186 67.5
t98 169.5q4 26 4 51h-13h-35h-4v87v35v88h39q27 0 46.5 -26t19.5 -62v-35q0 -36 -19.5 -61.5t-46.5 -25.5h13q0 -25 -4 -51q47 8 78 44.5t31 85.5v52q0 47 -30 83t-76 45v0zM211 463h39v-88v-35v-87h-39q-27 0 -46.5 25.5t-19.5 61.5v35q0 36 19.5 62t46.5 26v0zM211 463z
" />
    <glyph glyph-name="caidan1" unicode="&#xe606;" 
d="M32 768h112v-112h-112v112zM247 768h745v-112h-745v112zM32 440h112v-112h-112v112zM247 440h745v-112h-745v112zM32 112h112v-112h-112v112zM247 112h745v-112h-745v112z" />
    <glyph glyph-name="order" unicode="&#xe623;" 
d="M862 850h-758v-932h816v932h-58zM862 -24h-699v816h699v-816zM337 675h-58v-58h58v58zM745 675h-349v-58h349v58zM337 501h-58v-59h58v59zM745 501h-349v-59h349v59zM337 326h-58v-58h58v58zM745 326h-349v-58h349v58zM337 151h-58v-58h58v58zM745 151h-349v-58h349v58z
" />
    <glyph glyph-name="xjt" unicode="&#xe607;" 
d="M491 694l-449 -449q-10 -10 -10 -23.5t10 -23.5t23.5 -10t23.5 10l427 427l421 -420q9 -10 22.5 -10t23 9.5t9.5 23t-10 23.5l-436 436q0 1 -6 4l-0.5 1.5t-1.5 1.5q-10 10 -23.5 10t-23.5 -10z" />
    <glyph glyph-name="record" unicode="&#xe626;" 
d="M872 864h-720q-25 0 -42.5 -17.5t-17.5 -42.5v-840q0 -25 17.5 -42.5t42.5 -17.5h720q25 0 42.5 17.5t17.5 42.5v840q0 25 -17.5 42.5t-42.5 17.5zM212 744h600v-60h-600v60zM812 24h-600v360h600v-360zM812 444h-600v60h600v-60zM812 564h-600v60h600v-60z" />
    <glyph glyph-name="action" unicode="&#xe63e;" 
d="M512 896q-139 0 -257 -68.5t-186.5 -186.5t-68.5 -257t68.5 -257t186.5 -186.5t257 -68.5t257 68.5t186.5 186.5t68.5 257t-68.5 257t-186.5 186.5t-257 68.5zM848.5 362.5q-4.5 -10.5 -11.5 -18.5l-210 -210q-17 -16 -40.5 -16t-40 16.5t-16.5 40t17 40.5l112 112h-431
q-24 0 -40.5 16.5t-16.5 40.5t16.5 40.5t40.5 16.5h431l-112 112q-17 17 -17 40.5t16.5 40t40 16.5t40.5 -16l210 -210v0q8 -8 12 -18q4 -11 4 -22t-4.5 -21.5z" />
    <glyph glyph-name="tracking" unicode="&#xe613;" 
d="M820 648q-117 117 -282 126v37h62v52h-176v-52h62v-37q-165 -9 -282 -126q-62 -62 -95 -141.5t-33 -167t33 -167t95 -141t141.5 -94.5t166.5 -33t166.5 33t141.5 94.5t95 141t33 167t-33 167t-95 141.5zM783 68q-102 -102 -245 -111v31h-52v-31q-143 9 -245 111t-112 246
h32v52h-32q10 143 112 245t245 112v-32h52v32q143 -10 245 -112t112 -245h-32v-52h32q-10 -144 -112 -246zM239 576l41 -41l37 37l-42 41zM749 66l-42 42l37 36l41 -41zM707 572l37 -37l41 41l-36 37zM239 103l36 -37l42 42l-37 36zM538 404v140h-52v-140q-19 -7 -31.5 -25
t-12.5 -39q0 -29 20.5 -49.5t49.5 -20.5t49.5 20.5t20.5 49.5q0 21 -12.5 39t-31.5 25zM512 322q-7 0 -12.5 5t-5.5 12.5t5.5 13t12.5 5.5t12.5 -5.5t5.5 -13t-5.5 -12.5t-12.5 -5z" />
    <glyph glyph-name="recordmian" unicode="&#xe627;" 
d="M957 627q17 0 28.5 11.5t11.5 28.5v162q0 17 -11.5 28.5t-28.5 11.5h-890q-17 0 -28.5 -11.5t-11.5 -28.5v-162q0 -17 11.5 -28.5t28.5 -11.5h688v-122h-688q-17 0 -28.5 -11.5t-11.5 -28.5v-162q0 -17 11.5 -28.5t28.5 -11.5h688v-122h-688q-17 0 -28.5 -11.5
t-11.5 -28.5v-162q0 -17 11.5 -28.5t28.5 -11.5h890q17 0 28.5 11.5t11.5 28.5v162q0 17 -11.5 28.5t-28.5 11.5h-81v122h81q17 0 28.5 11.5t11.5 28.5v162q0 17 -11.5 28.5t-28.5 11.5h-81v122h81zM249 323h-121v122h121v-122zM249 -41h-121v122h121v-122zM249 687h-121
v122h121v-122z" />
    <glyph glyph-name="user" unicode="&#xe614;" 
d="M501 862q102 0 174.5 -71t72.5 -171.5t-72.5 -172t-175 -71.5t-174.5 71.5t-72 172t72 171.5t175 71v0zM501 862zM362 353h290q92 0 169.5 -46t123 -125t45.5 -173v-22q0 -14 -6.5 -25t-21 -19t-30 -13.5t-42 -9t-49 -6t-58 -3.5t-62.5 -1.5t-69 -0.5h-290q-61 0 -91 0.5
t-77.5 2.5t-71 7t-50 13.5t-37 22t-10.5 32.5v22q0 94 45 173t123 125t169 46v0zM362 338z" />
    <glyph glyph-name="likes" unicode="&#xe633;" 
d="M832 545h-3l-197 6q13 69 4.5 121.5t-32 87.5t-52 53.5t-55.5 18.5q-3 0 -6 -1q-19 -2 -34.5 -10t-23.5 -18.5t-13.5 -20.5t-7.5 -17l-2 -7q2 -48 -8.5 -88.5t-28 -66t-32.5 -40t-31 -23.5q-13 12 -30 12h-172q-18 0 -31 -13t-13 -31v-528q0 -18 13 -31t31 -13h172
q18 0 31 13t13 31v4q29 -8 73 -19t73.5 -17.5l29.5 -6.5q60 -5 103 -5h6l145 1q18 1 34 7t26 13t17 14.5t10 12l3 4.5q16 31 26 52q31 63 52 140t26 114t5 45q2 11 3.5 38.5t2.5 49.5v23q-3 25 -16.5 44.5t-28 28.5t-33.5 14.5t-29.5 6.5t-19.5 1v0zM293 -20q0 -5 -4 -9
t-9 -4h-172q-6 0 -9.5 4t-3.5 9v528q0 5 3.5 9t9.5 4h172q10 0 12 -10l1 -523v-8v0v0zM923 345l-1 -2v-1q-1 -17 -5.5 -47t-24.5 -105.5t-49 -135.5q-2 -4 -4.5 -9.5t-5 -10t-5 -9.5l-4.5 -9t-4 -7t-3 -5l-1 -2q-2 -3 -6.5 -8.5t-20.5 -15t-36 -10.5l-150 -1q-40 0 -98 5
q-113 23 -181 44v492v1v1v2q18 12 35 27.5t38 44t33 73t11 98.5q3 8 6.5 16t16 18t30.5 11q1 1 3 1q37 0 71 -42q60 -75 34 -202l-7 -35l237 -8q11 0 23 -2t28.5 -7.5t29 -20.5t15.5 -36q-1 -82 -5 -103v0zM923 345z" />
    <glyph glyph-name="riqi" unicode="&#xe61d;" 
d="M559 431h-94v-94h94v94zM559 268h-94v-93h94v93zM931 803h-93v70q0 9 -7 16t-16.5 7t-16.5 -7t-7 -16v-70h-558v70q0 9 -7 16t-16.5 7t-16.5 -7t-7 -16v-70h-93q-38 0 -65.5 -27.5t-27.5 -65.5v-140v-46v-559q0 -38 27.5 -65.5t65.5 -27.5h838q38 0 65.5 27.5t27.5 65.5
v559v46v140q0 38 -27.5 65.5t-65.5 27.5zM977 -35q0 -19 -13.5 -32.5t-32.5 -13.5h-838q-19 0 -32.5 13.5t-13.5 32.5v559h930v-559zM977 570h-930v140q0 19 13.5 32.5t32.5 13.5h93v-69q0 -10 7 -17t16.5 -7t16.5 7t7 17v69h558v-69q0 -10 7 -17t16.5 -7t16.5 7t7 17v69h93
q19 0 32.5 -13.5t13.5 -32.5v-140zM791 268h-93v-93h93v93zM791 431h-93v-94h93v94zM559 105h-94v-93h94v93zM326 105h-93v-93h93v93zM326 431h-93v-94h93v94zM326 268h-93v-93h93v93z" />
    <glyph glyph-name="rule" unicode="&#xe615;" 
d="M813 794l45 -45l25 -26q3 -3 6.5 -9.5t6.5 -9.5v-13v-19h-154q-12 0 -19 6q-3 4 -6 10t-7 10q0 12 -6 25v19v128v0h19q7 0 19 -12q4 -4 13.5 -10t12.5 -10q6 -9 22 -22t23 -22v0zM640 736q0 -26 6 -45l20 -38q10 -22 32 -32q25 -13 51 -13h147v-576q0 -26 -13 -51
q-15 -30 -32 -39q-16 -16 -45 -25q-12 -7 -44 -7h-500q-6 0 -44 13q-26 13 -45 32q-26 26 -32 45q-5 0 -9 12t-4 26v692q0 19 13 44q1 3 4.5 10.5t6 12.5t6.5 11.5t8 10.5q12 23 39 32q25 13 45 13h390v-128v0zM704 96q26 0 45 19t19 45t-19 45t-45 19h-384q-26 0 -45 -19
t-19 -45t19 -45t45 -19h384v0zM768 416q0 26 -19 45t-45 19h-384q-26 0 -45 -19t-19 -45t19 -45t45 -19h384q26 0 45 19t19 45v0zM768 416z" />
    <glyph glyph-name="submenu" unicode="&#xe60e;" 
d="M55 382q0 97 35 185q35 85 98 151t146 102q85 38 178 38t178 -38q83 -36 146 -102t98 -151q35 -88 35 -185t-35 -185q-35 -85 -98 -151t-146 -103q-85 -37 -178 -37t-178 37q-83 37 -146 103t-98 151q-35 88 -35 185zM922 382q0 116 -55 215t-149.5 156.5t-205.5 57.5
t-205.5 -57.5t-149.5 -156.5t-55 -215t55 -215t149.5 -156.5t205.5 -57.5t205.5 57.5t149.5 156.5t55 215zM512 352l126 115q7 8 17.5 8t18 -7.5t7.5 -18t-7 -17.5l-144 -141q-7 -8 -18 -8t-18 8l-144 141q-7 7 -7 17.5t7.5 18t18 7.5t17.5 -8z" />
    <glyph glyph-name="power" unicode="&#xe60f;" 
d="M512 -116q-91 0 -176.5 34.5t-152 101t-101 153.5t-34.5 175t34.5 174.5t101.5 153.5q14 14 33.5 14t33.5 -14t14 -34t-14 -34q-71 -70 -96 -165t0 -190t96 -166t166 -96t190 0t166 95.5t96 166t0 190.5t-96 165q-14 14 -14 34t14 34t33.5 14t33.5 -14
q67 -67 101.5 -153.5t34.5 -174.5t-34.5 -175t-101 -153.5t-152 -101t-176.5 -34.5zM512 409v0v0q-25 0 -42 18q-17 17 -17 42v356q0 24 17 42q17 17 42 17v0v0q25 0 42 -17t17 -42v-356q0 -25 -17 -42q-17 -18 -42 -18z" />
    <glyph glyph-name="uploadimg" unicode="&#xe630;" 
d="M908 165v539q0 53 -38 90.5t-90 37.5h-652q-53 0 -90.5 -37.5t-37.5 -90.5v-539q0 -53 37.5 -90.5t90.5 -37.5h646v26h-646q-42 0 -72 30t-30 72v539q0 42 30 72t72 30h652q42 0 72 -30t30 -72v-539h26zM195 571v0q17 0 29 12t12 29t-12.5 29t-29 12t-28.5 -12t-12 -29
t11.5 -29t29.5 -12v0zM195 545v0q-28 0 -47.5 19.5t-19.5 47.5t19.5 47t47 19t47 -19t19.5 -47t-19.5 -47.5t-46.5 -19.5v0zM200 439h-18l411 -403l18 18l-411 403l-8 9l-9 -8l-179 -158l16 -20zM664 516h-19l237 -242l18 18l-237 242l-9 10l-9 -10l-257 -282l19 -16z
M886 172q-53 0 -90.5 -38t-37.5 -90.5t37.5 -90t90.5 -37.5t90.5 37.5t37.5 90t-37.5 90.5t-90.5 38zM937 31h-38v-39q0 -12 -13 -12t-13 12v39h-38q-13 0 -13 12.5t13 12.5h38v39q0 13 13 13t13 -13v-39h38q13 0 13 -12q0 -6 -3.5 -9.5t-9.5 -3.5z" />
    <glyph glyph-name="remind" unicode="&#xe610;" 
d="M602 -22.5q0 -38.5 -27 -65.5t-65.5 -27t-65.5 27t-27 65.5t27 65.5t65.5 27t65.5 -27t27 -65.5zM826 567q0 49 -14 89t-36 64.5t-49 43t-53.5 27.5t-48.5 14t-36 5.5l-14 0.5q0 3 -0.5 7.5t-4.5 16.5t-10.5 21t-19 16.5t-29.5 7.5t-29.5 -7t-18.5 -17t-9.5 -20.5
t-4.5 -17.5v-7q-6 0 -15 -0.5t-34.5 -5.5t-49 -13.5t-52 -27t-49.5 -43t-35 -64.5t-14 -89l-1 -315v-120h627v434zM885 9h-746q-26 0 -44 18t-18 44t18 44t44 18h746q26 0 44 -18t18 -44t-18 -44t-44 -18z" />
    <glyph glyph-name="node" unicode="&#xe628;" 
d="M869 145q-41 0 -76 -29l-182 130q18 38 18 78q0 57 -33 104l213 213q31 -18 60 -18q49 0 84.5 35.5t35.5 85t-35.5 84.5t-85 35t-84.5 -35t-35 -85q0 -28 18 -59l-213 -214q-47 34 -104 34q-51 0 -93 -26t-65 -70l-144 48q-5 21 -20.5 34.5t-36.5 13.5q-25 0 -42.5 -17.5
t-17.5 -42.5t17.5 -42.5t42.5 -17.5q21 0 39 15l143 -48q-3 -17 -3 -27q0 -74 52.5 -126.5t127.5 -52.5q74 0 126 52l182 -130q-9 -22 -9 -42q0 -50 35 -85t84.5 -35t85 35t35.5 84.5t-35.5 85t-84.5 35.5z" />
    <glyph glyph-name="search" unicode="&#xe61c;" 
d="M962 43l-227 229q-1 1 -8 7q60 93 60 205q0 103 -50 190t-136.5 137.5t-188 50.5t-188 -50.5t-136.5 -137.5t-50 -189.5t50 -189.5t136.5 -138t188.5 -51q110 0 204 62q5 -7 6 -9l227 -228q23 -24 55.5 -24t56 23.5t23.5 56.5t-23 56zM412.5 226q-106.5 0 -181.5 75.5
t-75 182.5t75 183t181.5 76t181.5 -76t75 -183t-75 -182.5t-181.5 -75.5z" />
    <glyph glyph-name="team" unicode="&#xe631;" 
d="M512 -27q-39 0 -75.5 3t-80.5 10.5t-80 24t-54 40.5q-27 35 -16 81q13 48 67.5 80t141.5 43v13q-58 46 -79 136q-7 30 -10 72t5 93q26 121 144 128q39 3 75 0q118 -8 143 -128q8 -51 5 -93t-10 -72q-21 -90 -79 -136v-13q87 -11 141.5 -43t67.5 -80v0q11 -46 -16 -81
q-18 -24 -54 -40.5t-80 -24t-80.5 -10.5t-75.5 -3zM514 650q-22 0 -36 -1q-82 -5 -100 -90q-6 -38 -4 -77t9 -67q19 -82 70 -115q10 -7 10 -20v-46q0 -10 -6 -16.5t-15 -7.5q-79 -7 -129.5 -31.5t-59.5 -58.5q-6 -23 7 -39q21 -28 88 -44t164 -16t164 16t88 44q13 16 7 39
q-9 34 -59.5 58.5t-129.5 31.5q-9 1 -15 7.5t-6 16.5v46q0 13 10 20q51 33 70 115q7 28 9 67t-4 77q-18 85 -100 91h-32zM964 200q-18 0 -23 18q-9 34 -60 58t-129 32q-9 1 -15.5 7.5t-6.5 16.5v46q0 12 11 20q51 33 70 115q7 28 9 67t-4 76q-9 42 -33.5 64t-68.5 27
q-9 2 -15.5 9.5t-5 17.5t9.5 16t17 5q119 -15 143 -129q7 -50 4.5 -92.5t-9.5 -71.5q-22 -91 -80 -137v-12q88 -11 142.5 -43t66.5 -80q3 -10 -2 -18.5t-15 -11.5h-6zM60 200h-6q-10 3 -15 11.5t-2 18.5q12 48 66.5 80t142.5 43v12q-59 46 -80 137q-7 29 -9.5 71.5t4.5 92.5
q24 114 143 129q9 1 17 -5t9.5 -16t-5 -17.5t-16.5 -9.5q-43 -5 -67.5 -27t-33.5 -64q-6 -37 -4 -76t9 -67q19 -82 70 -115q11 -8 11 -20v-46q0 -10 -6.5 -16.5t-15.5 -7.5q-78 -8 -129 -32t-60 -58q-5 -18 -23 -18z" />
    <glyph glyph-name="feedback" unicode="&#xe636;" horiz-adv-x="1112" 
d="M1033 509l-61 47l41 53l61 -48zM716 96l-61 47l292 380l61 -47zM776 350q-8 -9 -19 -9q-9 0 -15 5q-8 6 -9.5 16t4.5 18l134 174q6 8 16 9.5t18 -4.5t9.5 -16t-5.5 -18zM613 25l17 85l61 -47l-78 -38v0zM210 148h397l-9 -13q-6 -7 -8 -17l-4 -19h-376q-10 0 -17 7.5
t-7 17.5t7 17t17 7zM646 392h-436q-10 0 -17 7t-7 17.5t7 17.5t17 7h436q10 0 17.5 -7t7.5 -17.5t-7.5 -17.5t-17.5 -7zM646 246h-436q-10 0 -17 7t-7 17t7 17.5t17 7.5h436q10 0 17.5 -7.5t7.5 -17.5t-7.5 -17t-17.5 -7zM776 614l-212 217h-499v-894h711v169l32 42v-228
q0 -6 -4.5 -11t-11.5 -5h-744q-6 0 -11 5t-5 11v928q0 6 5 11t11 5h523q7 0 12 -5l220 -227q5 -5 5 -12v-87l-32 -42v123z" />
    <glyph glyph-name="nav" unicode="&#xe616;" 
d="M354 848h-176q-53 0 -92 -38.5t-39 -92.5v-176q0 -53 38.5 -90.5t92.5 -37.5h304v304q0 54 -37 92.5t-91 38.5zM418 477h-240q-27 0 -46.5 18.5t-19.5 45.5v176q0 27 19.5 46.5t46.5 19.5h176q27 0 45.5 -19.5t18.5 -46.5v-240zM849 848h-176q-54 0 -92.5 -38.5
t-38.5 -92.5v-304h307q54 0 91 37.5t37 90.5v176q0 54 -37.5 92.5t-90.5 38.5zM849 477h-243v240q0 27 20 46.5t47 19.5h176q27 0 45 -19.5t18 -46.5v-176v0q0 -27 -18 -45.5t-45 -18.5zM47 223v-177q0 -53 38.5 -90.5t92.5 -37.5h176q54 0 91 37.5t37 90.5v307h-304
q-53 0 -92 -38.5t-39 -91.5v0zM418 46q0 -27 -18.5 -45t-45.5 -18h-176q-27 0 -46.5 18.5t-19.5 44.5v177q0 26 19.5 46t46.5 20h240v-243v0zM849 353h-307v-307q0 -53 38.5 -90.5t92.5 -37.5h176q54 0 91 37.5t37 90.5v177q0 53 -37.5 91.5t-90.5 38.5z" />
    <glyph glyph-name="report" unicode="&#xe611;" 
d="M860 667q0 -13 9.5 -22.5t23 -9.5t22.5 9.5t9 22.5v163q0 13 -9 22.5t-23 9.5h-162q-14 0 -23 -9.5t-9 -23t9 -22.5t23 -9h88l-281 -281l-87 87q-9 9 -22 9v0q-14 0 -23 -9l-298 -299q-9 -10 -9 -23t9.5 -22.5t23 -9.5t22.5 10l275 276l87 -87q9 -9 22.5 -9t22.5 9
l300 301v-83zM792 522h134v-616h-134v616zM567 396h134v-490h-134v490zM343 272h134v-366h-134v366zM118 137h134v-231h-134v231z" />
    <glyph glyph-name="goods" unicode="&#xe624;" 
d="M512 384q-87 0 -153.5 56t-82.5 140q23 16 23 44q0 22 -16 37.5t-38 15.5t-37.5 -15.5t-15.5 -37.5q0 -34 31 -48q17 -105 99 -175t190 -70t190 70t99 175q31 14 31 48q0 22 -15.5 37.5t-37.5 15.5t-38 -15.5t-16 -37.5q0 -28 23 -44q-16 -84 -82.5 -140t-153.5 -56v0z
M885 864h-26v0h-187v0h-3v0q-10 -1 -17 -9t-7 -18t7 -17.5t17 -8.5v0h216q22 0 38 -16t16 -38v-746q0 -22 -16 -38t-38 -16h-746q-22 0 -38 16t-16 38v746q0 22 16 38t38 16h190v0q10 1 16.5 8.5t6.5 17.5t-6.5 18t-16.5 9v0h-4v0h-186v0q-44 0 -75.5 -31.5t-31.5 -75.5
v-746q0 -44 31.5 -75.5t75.5 -31.5h746q44 0 75.5 31.5t31.5 75.5v746q0 44 -31.5 75.5t-75.5 31.5v0zM885 864z" />
    <glyph glyph-name="right" unicode="&#xe63b;" 
d="M512 -93q-97 0 -185.5 38t-152 101.5t-101.5 152t-38 185.5t38 185.5t101.5 152t152 101.5t185.5 38t185.5 -38t152 -101.5t101.5 -152t38 -185.5t-38 -185.5t-101.5 -152t-152 -101.5t-185.5 -38v0zM512 808q-115 0 -212.5 -57t-154.5 -154.5t-57 -212.5t57 -212.5
t154.5 -154.5t212.5 -57t212.5 57t154.5 154.5t57 212.5t-57 212.5t-154.5 154.5t-212.5 57v0zM290 384l38 37l131 -131l262 263l38 -38l-300 -300zM290 384z" />
    <glyph glyph-name="quxiao" unicode="&#xe63c;" 
d="M512 896q-139 0 -257 -68.5t-186.5 -186.5t-68.5 -257t68.5 -257t186.5 -186.5t257 -68.5t257 68.5t186.5 186.5t68.5 257t-68.5 257t-186.5 186.5t-257 68.5zM512 -97q-98 0 -187 38t-153.5 102.5t-102.5 153.5t-38 187t38 187t102.5 153.5t153.5 102.5t187 38t187 -38
t153.5 -102.5t102.5 -153.5t38 -187t-38 -187t-102.5 -153.5t-153.5 -102.5t-187 -38zM729 175l-175 175l175 175q6 7 6 16t-6.5 15.5t-15.5 6.5t-16 -6l-175 -175l-175 175q-6 6 -15.5 6t-16 -6.5t-6.5 -15.5t7 -16l175 -175l-175 -175q-7 -6 -7 -15.5t6.5 -16t16 -6.5
t15.5 7l175 174l175 -174q7 -7 16 -7t15.5 6.5t6.5 16t-6 15.5v0z" />
    <glyph glyph-name="firend" unicode="&#xe634;" 
d="M512 -96q-130 0 -240.5 64.5t-175 175t-64.5 240.5t64.5 240.5t175 175t240.5 64.5t240.5 -64.5t175 -175t64.5 -240.5t-64.5 -240.5t-175 -175t-240.5 -64.5zM512 834q-184 0 -314 -132.5t-130 -317.5q0 -121 59.5 -224.5t163 -164.5t227.5 -61q189 0 319.5 130.5
t130.5 319.5q0 187 -135 318.5t-321 131.5zM728 492q0 63 -43.5 106.5t-106.5 43.5t-106.5 -43.5t-43.5 -106.5q0 -45 21 -79.5t57 -52.5q-56 -28 -91 -80.5t-35 -117.5v-18q3 0 9 -3t9 -3q12 0 18 6v18q0 72 51 123t123 51h6v0q45 9 60 24v0q72 51 72 132v0zM578 372
q-49 0 -81.5 35t-32.5 85q0 48 34 81t80 33q48 0 81 -34t33 -80q4 -49 -30 -84.5t-84 -35.5v0zM722 324q-24 0 -24 -24q31 -22 48.5 -59.5t17.5 -78.5v-18q3 0 9 -3t9 -3t9 3t9 3v18q-9 103 -78 162v0zM428 354q18 0 18 18q0 8 -4.5 12.5t-9.5 5.5h-4h-48q-2 1 -6 3.5
t-14 11.5t-16.5 20t-10.5 29t-1 38q4 47 31 66t47 12q18 0 18 18t-18 18h-15.5t-28 -7t-35.5 -19t-25.5 -39.5t-9.5 -66.5q0 -27 9 -48t18 -28l9 -8q-4 -1 -10 -3.5t-22 -14.5t-29 -28.5t-25.5 -49t-15.5 -72.5v-48q-6 -18 18 -18q7 0 11 1.5t5.5 6t2 7.5t0 10.5t-0.5 10.5
q-3 7 -3 27t5.5 47t30 52.5t63.5 35.5q3 3 19.5 3t31.5 -1l15 -2v0z" />
    <glyph glyph-name="open" unicode="&#xe637;" 
d="M92 114h840q25 0 42.5 17.5t17.5 42.5v420q0 25 -17.5 42.5t-42.5 17.5h-840q-25 0 -42.5 -17.5t-17.5 -42.5v-420q0 -25 17.5 -42.5t42.5 -17.5zM77 564q0 25 10 35t35 10h780q25 0 35 -10t10 -35v-360q0 -25 -10 -35t-35 -10h-780q-25 0 -35 10t-10 35v360zM182 204
h240q25 0 42.5 17.5t17.5 42.5v240q0 25 -17.5 42.5t-42.5 17.5h-240q-25 0 -42.5 -17.5t-17.5 -42.5v-240q0 -25 17.5 -42.5t42.5 -17.5z" />
    <glyph glyph-name="close" unicode="&#xe638;" 
d="M932 654h-840q-25 0 -42.5 -17.5t-17.5 -42.5v-420q0 -25 17.5 -42.5t42.5 -17.5h840q25 0 42.5 17.5t17.5 42.5v420q0 25 -17.5 42.5t-42.5 17.5zM947 204q0 -25 -10 -35t-35 -10h-780q-25 0 -35 10t-10 35v360q0 25 10 35t35 10h780q25 0 35 -10t10 -35v-360zM842 564
h-240q-25 0 -42.5 -17.5t-17.5 -42.5v-240q0 -25 17.5 -42.5t42.5 -17.5h240q25 0 42.5 17.5t17.5 42.5v240q0 25 -17.5 42.5t-42.5 17.5z" />
  </font>
</defs>
</svg>
